<svg id="afa40a6d-4fc9-4811-a3b7-9dc1ef986c6c" data-name="Layer 1" xmlns="http://www.w3.org/2000/svg" xmlns:xlink="http://www.w3.org/1999/xlink" viewBox="0 0 319.29 319.46"><defs><style>.\32 7b911bb-7e20-49c6-8d3a-02949473a8ae{fill:url(#9bb59098-eaf9-454d-b22f-865a56d2d9c8)}.e9dc7ad6-ffe7-4cf6-92fb-e31ece99d197{fill:url(#d9c8b156-4141-4d00-a41f-745ffaf89bf8)}.\36 cb2cb79-d34d-483a-98a3-2d345aad6861{fill:url(#f5cb9633-a062-48d6-b354-935c3316414e)}.\36 15cb747-21b6-4de3-8d92-6c444af355ec{fill:url(#4c6eebec-ee11-443c-8130-d686d2376f65)}.\38 5ed51ca-8a4d-4719-a653-bc5dcd2e488e{fill:url(#d0b6ff49-c1d2-49ec-897c-3434d7ccf531)}.d2b01f69-cf28-41f9-9e45-a5f92940a221{fill:url(#73f043bb-556f-47a9-9a14-783817532927)}.\32 ad48b63-19e0-4d91-bf55-9c6887d49057{fill:url(#2fdaddaa-7b81-4988-944e-1c73947e70bb)}.\33 3417630-cb74-4ed4-b7f8-dc8a0a2bfcf6{fill:url(#c21f0a3d-867d-4344-abb6-d73369599d4f)}.\39 a4b62de-808c-4c70-8d7c-85c024865b8f{fill:url(#bbe2509a-b1fc-4b00-8ffd-578f4b566bbc)}.\32 9a46047-25a5-40ad-8622-15f74624414e{fill:url(#dcd0fcfa-f2a5-4fad-9d05-17820b862bf6)}.\33 105b5f3-1483-4d3a-b858-0d0900375442{fill:url(#880d3ed4-6701-4370-9eab-350882b75e66)}.b77d6bae-2813-41cb-b198-1dfb7b2991e4{fill:url(#fd64d983-28d9-48bc-b33e-e1080f870ee3)}.\39 82bfec1-dd04-44ec-ba00-861c0045da2f{fill:url(#9e535a47-080e-4f8a-a3c4-1ac07cc79942)}.b990d025-8a76-4fc4-b142-8d0a2acd6b72{fill:url(#1e001c51-18ea-46fe-942b-4a1ffce86e95)}.\30 3585bd9-d947-4b30-822a-492b08577bfd{fill:url(#fb7061b2-0995-4e09-86f3-a7cb3a58ee69)}.cbc5a05a-037a-4df3-a61c-45e1daa58330{fill:url(#7244ba13-e813-414b-963d-d7da75f658d8)}.b8b67de4-ae0c-4dd1-ac32-506fc0a34705{fill:url(#277af983-036d-4514-9219-b760977a35a6)}.\31 48341de-48ca-4f93-94d3-1bd1be5398cc{fill:url(#8183584a-a387-4be1-a8f8-c476fae387d5)}.\38 85540ce-f946-4f5e-b7f1-6186cd8356a3{fill:url(#eb098729-49eb-4241-b0fd-46690894b901)}.\32 59a2422-8400-467c-a95a-2b2850bd0720{fill:url(#7abf708c-4f5f-4bdf-b3c3-43626b441916)}.\36 0053840-37a1-4327-808d-cf20edceea18{fill:url(#db5c6a39-9867-40b9-838a-c9c8c0294dcc)}.\36 37432bb-0724-435d-bb97-00f354a2252b{fill:url(#ce67684f-adbc-4ecd-a293-e38d90cebe64)}.\30 07b4564-a1eb-46cc-b4a7-2ffda95e48e9{fill:url(#7024b739-e044-480a-859a-38400f1b0de4)}.\30 374f441-56cf-4ce7-a04a-9b386fca3b5e{fill:url(#ad12c874-ab6b-4c92-acea-bae47825a74c)}.ad486185-229d-4e0a-8a75-ad99fd34dbdd{fill:url(#ff6fb4fc-3f1d-418a-b1a7-c9717fa129a0)}.\31 34dd25e-315b-42ab-b7b6-020340f18353{fill:url(#40f2dff6-9edd-4afb-aaa4-ee9f1d4dfba4)}.dd46c59e-390f-424e-9d68-c28f2c206198{fill:url(#f150741e-a19e-43f1-a459-513ce0369a55)}</style><linearGradient id="9bb59098-eaf9-454d-b22f-865a56d2d9c8" x1="111.52" y1="57.43" x2="256.64" y2="308.78" gradientUnits="userSpaceOnUse"><stop offset="0" stop-color="#fff" stop-opacity=".2"/><stop offset=".4" stop-color="#9dbdf1" stop-opacity=".91"/><stop offset=".63" stop-color="#d0a3d4" stop-opacity=".97"/><stop offset=".81" stop-color="#cd91cb" stop-opacity=".79"/></linearGradient><linearGradient id="d9c8b156-4141-4d00-a41f-745ffaf89bf8" x1="109.82" y1="56.83" x2="256.74" y2="311.3" xlink:href="#9bb59098-eaf9-454d-b22f-865a56d2d9c8"/><linearGradient id="f5cb9633-a062-48d6-b354-935c3316414e" x1="108.1" y1="56.24" x2="256.82" y2="313.83" xlink:href="#9bb59098-eaf9-454d-b22f-865a56d2d9c8"/><linearGradient id="4c6eebec-ee11-443c-8130-d686d2376f65" x1="106.38" y1="55.66" x2="256.9" y2="316.36" xlink:href="#9bb59098-eaf9-454d-b22f-865a56d2d9c8"/><linearGradient id="d0b6ff49-c1d2-49ec-897c-3434d7ccf531" x1="104.64" y1="55.09" x2="256.95" y2="318.91" xlink:href="#9bb59098-eaf9-454d-b22f-865a56d2d9c8"/><linearGradient id="73f043bb-556f-47a9-9a14-783817532927" x1="102.88" y1="54.53" x2="256.99" y2="321.46" xlink:href="#9bb59098-eaf9-454d-b22f-865a56d2d9c8"/><linearGradient id="2fdaddaa-7b81-4988-944e-1c73947e70bb" x1="101.09" y1="53.99" x2="257" y2="324.03" xlink:href="#9bb59098-eaf9-454d-b22f-865a56d2d9c8"/><linearGradient id="c21f0a3d-867d-4344-abb6-d73369599d4f" x1="99.27" y1="53.46" x2="256.97" y2="326.62" xlink:href="#9bb59098-eaf9-454d-b22f-865a56d2d9c8"/><linearGradient id="bbe2509a-b1fc-4b00-8ffd-578f4b566bbc" x1="97.39" y1="52.97" x2="256.9" y2="329.24" xlink:href="#9bb59098-eaf9-454d-b22f-865a56d2d9c8"/><linearGradient id="dcd0fcfa-f2a5-4fad-9d05-17820b862bf6" x1="95.45" y1="52.52" x2="256.75" y2="331.9" xlink:href="#9bb59098-eaf9-454d-b22f-865a56d2d9c8"/><linearGradient id="880d3ed4-6701-4370-9eab-350882b75e66" x1="93.4" y1="52.12" x2="256.5" y2="334.62" xlink:href="#9bb59098-eaf9-454d-b22f-865a56d2d9c8"/><linearGradient id="fd64d983-28d9-48bc-b33e-e1080f870ee3" x1="91.2" y1="51.82" x2="256.1" y2="337.43" xlink:href="#9bb59098-eaf9-454d-b22f-865a56d2d9c8"/><linearGradient id="9e535a47-080e-4f8a-a3c4-1ac07cc79942" x1="88.59" y1="51.74" x2="255.29" y2="340.47" xlink:href="#9bb59098-eaf9-454d-b22f-865a56d2d9c8"/><linearGradient id="1e001c51-18ea-46fe-942b-4a1ffce86e95" x1="86.33" y1="51.47" x2="254.82" y2="343.31" xlink:href="#9bb59098-eaf9-454d-b22f-865a56d2d9c8"/><linearGradient id="fb7061b2-0995-4e09-86f3-a7cb3a58ee69" x1="87.01" y1="49.51" x2="257.3" y2="344.46" xlink:href="#9bb59098-eaf9-454d-b22f-865a56d2d9c8"/><linearGradient id="7244ba13-e813-414b-963d-d7da75f658d8" x1="87.42" y1="47.69" x2="259.52" y2="345.78" xlink:href="#9bb59098-eaf9-454d-b22f-865a56d2d9c8"/><linearGradient id="277af983-036d-4514-9219-b760977a35a6" x1="87.58" y1="46.03" x2="261.5" y2="347.26" xlink:href="#9bb59098-eaf9-454d-b22f-865a56d2d9c8"/><linearGradient id="8183584a-a387-4be1-a8f8-c476fae387d5" x1="87.46" y1="44.52" x2="263.2" y2="348.91" xlink:href="#9bb59098-eaf9-454d-b22f-865a56d2d9c8"/><linearGradient id="eb098729-49eb-4241-b0fd-46690894b901" x1="87.03" y1="43.19" x2="264.59" y2="350.73" xlink:href="#9bb59098-eaf9-454d-b22f-865a56d2d9c8"/><linearGradient id="7abf708c-4f5f-4bdf-b3c3-43626b441916" x1="86.23" y1="42.07" x2="265.61" y2="352.77" xlink:href="#9bb59098-eaf9-454d-b22f-865a56d2d9c8"/><linearGradient id="db5c6a39-9867-40b9-838a-c9c8c0294dcc" x1="84.97" y1="41.23" x2="266.17" y2="355.07" xlink:href="#9bb59098-eaf9-454d-b22f-865a56d2d9c8"/><linearGradient id="ce67684f-adbc-4ecd-a293-e38d90cebe64" x1="83.3" y1="40.61" x2="266.32" y2="357.61" xlink:href="#9bb59098-eaf9-454d-b22f-865a56d2d9c8"/><linearGradient id="7024b739-e044-480a-859a-38400f1b0de4" x1="81.57" y1="39.97" x2="266.43" y2="360.16" xlink:href="#9bb59098-eaf9-454d-b22f-865a56d2d9c8"/><linearGradient id="ad12c874-ab6b-4c92-acea-bae47825a74c" x1="79.85" y1="39.32" x2="266.56" y2="362.72" xlink:href="#9bb59098-eaf9-454d-b22f-865a56d2d9c8"/><linearGradient id="ff6fb4fc-3f1d-418a-b1a7-c9717fa129a0" x1="78.13" y1="38.67" x2="266.69" y2="365.27" xlink:href="#9bb59098-eaf9-454d-b22f-865a56d2d9c8"/><linearGradient id="40f2dff6-9edd-4afb-aaa4-ee9f1d4dfba4" x1="76.42" y1="38.01" x2="266.83" y2="367.81" xlink:href="#9bb59098-eaf9-454d-b22f-865a56d2d9c8"/><linearGradient id="f150741e-a19e-43f1-a459-513ce0369a55" x1="74.71" y1="37.36" x2="266.97" y2="370.36" xlink:href="#9bb59098-eaf9-454d-b22f-865a56d2d9c8"/></defs><title>Books_footer_wave</title><path class="27b911bb-7e20-49c6-8d3a-02949473a8ae" d="M207.81 333a235 235 0 0 1-50.35-39.66C111.06 245 90.89 197.76 97.49 153c4.12-27.94 17.64-47.52 40-79.95a353.72 353.72 0 0 1 50.91-58.61l-.88-.91a354.92 354.92 0 0 0-51.09 58.82c-22.43 32.56-36.04 52.23-40.21 80.45-6.66 45.18 13.63 92.74 60.3 141.38A236.12 236.12 0 0 0 205.34 333z" transform="translate(-3 -13.52)"/><path class="e9dc7ad6-ffe7-4cf6-92fb-e31ece99d197" d="M212.28 333A307.14 307.14 0 0 1 162 290.88c-45.6-47.53-65.83-93.26-61.2-136.78 2.9-27.25 14.06-46.64 34.08-78.83a332.07 332.07 0 0 1 46.47-58.38l-.88-.84a333.26 333.26 0 0 0-46.64 58.59C113.72 107 102.5 126.45 99.56 154c-4.69 43.9 15.64 90 61.54 137.77a307.71 307.71 0 0 0 49 41.24z" transform="translate(-3 -13.52)"/><path class="6cb2cb79-d34d-483a-98a3-2d345aad6861" d="M216.73 333a431.37 431.37 0 0 1-50.12-44.53c-44.88-46.72-65.18-91-62.51-133.23 1.67-26.57 10.47-45.75 28.12-77.71a311.58 311.58 0 0 1 42-58.16l-.88-.77a312.75 312.75 0 0 0-42.18 58.37c-17.7 32.03-26.54 51.33-28.26 78.17-2.72 42.6 17.66 87.2 62.78 134.17a430 430 0 0 0 49 43.68z" transform="translate(-3 -13.52)"/><path class="615cb747-21b6-4de3-8d92-6c444af355ec" d="M221.18 333a694.141 694.141 0 0 1-50-47c-44.12-45.91-64.49-88.75-63.79-129.68.45-25.92 6.88-44.83 22.15-76.59 9.95-20.68 22.94-40 37.59-57.94l-.89-.71c-14.71 18-27.74 37.39-37.73 58.14-15.35 31.9-21.81 50.9-22.3 77.07-.76 41.27 19.68 84.42 64 130.56a691.439 691.439 0 0 0 49 46.11z" transform="translate(-3 -13.52)"/><path class="85ed51ca-8a4d-4719-a653-bc5dcd2e488e" d="M223.88 333h1.74c-16.83-16-33.59-32.55-49.84-49.41C132.42 238.47 112 197 110.72 157.44c-.79-25.29 3.28-43.9 16.18-75.44 8.37-20.48 20-39.71 33.16-57.72l-.89-.64C146 41.67 134.3 61 125.9 81.53c-13 31.72-17.06 50.41-16.31 75.94 1.18 39.92 21.7 81.65 65.26 127C190.82 301 207.3 317.29 223.88 333z" transform="translate(-3 -13.52)"/><path class="d2b01f69-cf28-41f9-9e45-a5f92940a221" d="M230 333c-16.35-17.19-33-34.62-49.67-51.85-42.6-44.28-63.18-84.36-66.33-122.58-2-24.68-.33-42.93 10.22-74.36 6.79-20.25 17-39.4 28.72-57.49l-.89-.57c-11.73 18.15-22 37.37-28.82 57.7-10.6 31.57-12.32 49.9-10.32 74.81 3.09 38.53 23.72 78.88 66.5 123.35 16.37 17 32.81 34.09 49 51z" transform="translate(-3 -13.52)"/><path class="2ad48b63-19e0-4d91-bf55-9c6887d49057" d="M234.43 333a1276.946 1276.946 0 0 0-49.49-54.29c-41.84-43.47-62.57-82.21-67.6-119-3.29-24.09-3.92-41.93 4.25-73.24 5.23-20 14.08-39.1 24.28-57.27l-.89-.5c-10.24 18.19-19.13 37.3-24.37 57.42-8.22 31.45-7.6 49.37-4.34 73.68 5 37.11 25.73 76.1 67.74 119.75 16.75 17.34 33.16 35.31 48.86 53.43z" transform="translate(-3 -13.52)"/><path class="33417630-cb74-4ed4-b7f8-dc8a0a2bfcf6" d="M238.85 333a717.66 717.66 0 0 0-49.33-56.73c-41.08-42.66-62-80.08-68.88-115.47-4.57-23.52-7.51-40.9-1.71-72.13 3.67-19.75 11.13-38.79 19.84-57l-.89-.43C129.13 49.49 121.64 68.6 118 88.42c-5.83 31.36-2.89 48.81 1.65 72.55 6.82 35.67 27.75 73.33 69 116.14A737.1 737.1 0 0 1 237.37 333z" transform="translate(-3 -13.52)"/><path class="9a4b62de-808c-4c70-8d7c-85c024865b8f" d="M243.26 333a513.25 513.25 0 0 0-49.16-59.17c-40.32-41.85-61.47-78-70.15-111.92-5.88-23-11.07-39.85-7.68-71 2.12-19.47 8.18-38.48 15.4-56.83l-.89-.36c-7.25 18.41-13.33 37.48-15.46 57-3.42 31.28 1.78 48.28 7.63 71.41 8.63 34.2 29.77 70.56 70.22 112.54A522.9 522.9 0 0 1 241.83 333z" transform="translate(-3 -13.52)"/><path class="29a46047-25a5-40ad-8622-15f74624414e" d="M246.28 333h1.37a408.58 408.58 0 0 0-49-61.6c-39.56-41-61-75.89-71.42-108.37-7.21-22.44-14.61-38.77-13.64-69.89.6-19.18 5.23-38.17 11-56.6l-.9-.29c-5.76 18.49-10.41 37.55-11 56.8-1 31.25 6.44 47.65 13.62 70.28 10.38 32.72 31.79 67.79 71.46 108.93A414.29 414.29 0 0 1 246.28 333z" transform="translate(-3 -13.52)"/><path class="3105b5f3-1483-4d3a-b858-0d0900375442" d="M250.72 333h1.33a345.51 345.51 0 0 0-48.8-64c-38.81-40.22-60.56-73.8-72.7-104.82-8.55-21.98-18.1-37.73-19.55-68.84-1-18.87 2.22-37.86 6.48-56.34l-.9-.23c-4.27 18.58-7.46 37.63-6.56 56.58 1.49 31.23 11.06 47 19.61 69.15 12.08 31.23 33.8 65 72.7 105.33A349.17 349.17 0 0 1 250.72 333z" transform="translate(-3 -13.52)"/><path class="b77d6bae-2813-41cb-b198-1dfb7b2991e4" d="M255.15 333h1.3a303.72 303.72 0 0 0-48.61-66.48c-38-39.41-60.19-71.72-74-101.26-10-21.39-21.58-36.56-25.58-67.66-2.35-18.6-.65-37.6 2.12-56.18l-.9-.16C106.7 59.92 105 79 107.38 97.61c4 31.22 15.64 46.45 25.59 68 13.72 29.75 35.82 62.24 73.94 101.72A306.14 306.14 0 0 1 255.15 333z" transform="translate(-3 -13.52)"/><path class="982bfec1-dd04-44ec-ba00-861c0045da2f" d="M259.57 333h1.28a274.27 274.27 0 0 0-48.43-68.92c-37.29-38.6-59.88-69.63-75.24-97.71-11.41-20.86-25-35.45-31.54-66.54-3.84-18.26-3.63-37.25-2.35-55.93l-.9-.09c-1.29 18.75-1.49 37.8 2.35 56.13 6.55 31.21 20.19 45.85 31.58 66.89 15.3 28.27 37.84 59.47 75.18 98.12A275.88 275.88 0 0 1 259.57 333z" transform="translate(-3 -13.52)"/><path class="b990d025-8a76-4fc4-b142-8d0a2acd6b72" d="M264 333h1.25A252.59 252.59 0 0 0 217 261.62c-36.53-37.79-59.62-67.51-76.51-94.16C127.6 147.14 112.09 133.1 103 102c-5.27-18-6.58-36.94-6.79-55.71h-.9c.21 18.83 1.52 37.88 6.8 55.9 9.14 31.19 24.7 45.27 37.56 65.76 16.83 26.81 39.86 56.69 76.41 94.51A253.61 253.61 0 0 1 264 333z" transform="translate(-3 -13.52)"/><path class="03585bd9-d947-4b30-822a-492b08577bfd" d="M268.43 333h1.23c-11.92-28.39-28.08-53.21-48.09-73.8-35.77-37-59.41-65.37-77.79-90.61-14.39-19.76-31.74-33.27-43.47-64.3-6.68-17.66-9.53-36.64-11.23-55.49h-.9c1.7 18.92 4.56 38 11.26 55.68 11.77 31.15 29.17 44.7 43.55 64.63 18.31 25.38 41.88 53.92 77.65 90.91 19.82 20.4 35.87 44.92 47.79 72.98z" transform="translate(-3 -13.52)"/><path class="cbc5a05a-037a-4df3-a61c-45e1daa58330" d="M272.84 333h1.22c-11.42-29.64-27.52-55.28-47.9-76.24-35-36.17-59.23-63.2-79.06-87.06-15.94-19.18-35.1-32.23-49.44-63.2C89.59 89.12 85.17 70.17 82 51.23l-.91.12c3.19 19 7.62 38 15.71 55.45 14.42 31.09 33.61 44.17 49.54 63.5 19.75 24 43.89 51.15 78.89 87.3 20.18 20.75 36.18 46.1 47.61 75.4z" transform="translate(-3 -13.52)"/><path class="b8b67de4-ae0c-4dd1-ac32-506fc0a34705" d="M277.23 333h1.22c-10.92-30.89-27-57.35-47.71-78.67-34.25-35.36-59.08-61-80.33-83.5-17.5-18.55-38.35-31.18-55.41-62.07-9.45-17.11-15.43-36-20.1-55l-.91.18C78.67 73 84.67 91.93 94.15 109.1c17.11 31 38 43.67 55.52 62.36 21.17 22.62 45.91 48.37 80.13 83.7 20.57 21.12 36.5 47.29 47.43 77.84z" transform="translate(-3 -13.52)"/><path class="148341de-48ca-4f93-94d3-1bd1be5398cc" d="M281.62 333h1.21c-10.42-32.13-26.39-59.42-47.52-81.11-33.49-34.54-59-58.73-81.61-80-19.09-17.89-41.62-30.18-61.37-61C81.52 94.1 74 75.25 67.8 56.14l-.91.25c6.17 19.17 13.76 38.08 24.62 55 19.81 30.88 42.42 43.2 61.51 61.23 22.56 21.3 47.93 45.6 81.37 80.09 20.93 21.51 36.8 48.49 47.23 80.29z" transform="translate(-3 -13.52)"/><path class="885540ce-f946-4f5e-b7f1-6186cd8356a3" d="M239 250.29c21.3 21.86 37.11 49.67 47 82.69h1.21c-9.92-33.38-25.82-61.49-47.33-83.55A991.78 991.78 0 0 0 157 173c-20.69-17.19-44.89-29.21-67.34-59.84-12.19-16.63-21.34-35.41-29-54.6l-.91.32C67.45 78.17 76.63 97 88.86 113.7c22.52 30.74 46.79 42.78 67.5 60.1A1026.55 1026.55 0 0 1 239 250.29z" transform="translate(-3 -13.52)"/><path class="259a2422-8400-467c-a95a-2b2850bd0720" d="M243.55 247.85c21.67 22.23 37.45 50.86 46.84 85.15h1.22c-9.42-34.63-25.25-63.55-47.14-86-32-32.92-58.72-54.09-84.15-72.85C138 157.7 112.17 145.87 87 115.42 73.46 99 62.73 80.32 53.6 61l-.91.39C61.85 80.78 72.61 99.53 86.22 116c25.24 30.56 51.16 42.4 73.48 59 25.3 18.77 51.96 40 83.85 72.85z" transform="translate(-3 -13.52)"/><path class="60053840-37a1-4327-808d-cf20edceea18" d="M248.13 245.41c22 22.59 37.71 52 46.65 87.56H296c-8.92-35.88-24.69-65.62-46.94-88.43-31.22-32.11-58.59-51.71-85.42-69.29-23.91-15.67-51.41-27.35-79.27-57.6-14.94-16.2-27.25-34.79-37.86-54.15l-.91.46c10.65 19.42 23 38.07 38 54.33 28 30.36 55.53 42.06 79.47 57.84 26.68 17.61 53.93 37.28 85.06 69.28z" transform="translate(-3 -13.52)"/><path class="637432bb-0724-435d-bb97-00f354a2252b" d="M252.71 243c22.42 23 38 53.24 46.44 90h1.23c-8.42-37.13-24.12-67.69-46.75-90.87-30.46-31.3-58.45-49.3-86.7-65.74-25.51-14.85-54.67-26.46-85.23-56.48C65.4 103.87 51.51 85.4 39.41 66l-.92.53c12.14 19.51 26.08 38 42.43 54.11 30.66 30.13 59.9 41.75 85.45 56.71 28.12 16.41 56.01 34.46 86.34 65.65z" transform="translate(-3 -13.52)"/><path class="007b4564-a1eb-46cc-b4a7-2ffda95e48e9" d="M257.29 240.54c22.79 23.32 38.32 54.46 46.24 92.46h1.24c-7.91-38.37-23.55-69.76-46.55-93.3-29.7-30.49-58.29-46.85-88-62.19-27.1-14-57.94-25.58-91.2-55.37-17.66-15.86-33.12-34.2-46.71-53.73l-.92.59C45 88.6 60.54 107 78.28 122.89c33.37 29.89 64.29 41.48 91.44 55.58 29.54 15.33 58.02 31.73 87.57 62.07z" transform="translate(-3 -13.52)"/><path class="0374f441-56cf-4ce7-a04a-9b386fca3b5e" d="M261.87 238.1c23.16 23.69 38.62 55.61 46 94.88h1.25c-7.41-39.62-23-71.83-46.35-95.74-28.94-29.67-58.11-44.38-89.24-58.64-28.69-13.14-61.22-24.73-97.17-54.25a326.16 326.16 0 0 1-51.14-53.49l-.92.66a327.33 327.33 0 0 0 51.34 53.66c36.06 29.63 68.68 41.23 97.43 54.44 30.93 14.25 60.02 28.97 88.8 58.48z" transform="translate(-3 -13.52)"/><path class="ad486185-229d-4e0a-8a75-ad99fd34dbdd" d="M266.45 235.66c23.53 24.06 38.91 56.8 45.82 97.32h1.26c-6.91-40.87-22.41-73.9-46.15-98.18-28.18-28.86-57.91-41.89-90.52-55.09-30.25-12.25-64.51-23.88-103.13-53.13a345.92 345.92 0 0 1-55.61-53.26l-.92.68A347.15 347.15 0 0 0 73 127.49c38.75 29.35 73.09 41 103.41 53.31 32.44 13.2 62.04 26.2 90.04 54.86z" transform="translate(-3 -13.52)"/><path class="134dd25e-315b-42ab-b7b6-020340f18353" d="M271 233.22c23.9 24.43 39.21 58 45.61 99.76h1.28c-6.41-42.12-21.84-76-46-100.62-27.42-28.05-57.68-39.38-91.79-51.53-31.8-11.34-67.81-23-109.1-52a366.57 366.57 0 0 1-60-53l-.92.8a367.85 367.85 0 0 0 60.24 53.21c41.43 29.07 77.52 40.8 109.4 52.18 33.96 12.06 64.09 23.36 91.28 51.2z" transform="translate(-3 -13.52)"/><path class="dd46c59e-390f-424e-9d68-c28f2c206198" d="M275.61 230.78C299.88 255.57 315.12 290 321 333h1.29c-5.9-43.37-21.26-78-45.76-103.06-26.66-27.24-57.43-36.85-93.06-48-33.33-10.41-71.12-22.21-115.06-50.9A388 388 0 0 1 3.92 78.22l-.92.87a389.35 389.35 0 0 0 64.7 53c44.1 28.78 82 40.61 115.38 51 35.46 11.12 66.09 20.68 92.53 47.69z" transform="translate(-3 -13.52)"/></svg>